<svg xmlns:dc="http://purl.org/dc/elements/1.1/" xmlns:cc="http://creativecommons.org/ns#" xmlns:rdf="http://www.w3.org/1999/02/22-rdf-syntax-ns#" xmlns:svg="http://www.w3.org/2000/svg" xmlns="http://www.w3.org/2000/svg" xmlns:sodipodi="http://sodipodi.sourceforge.net/DTD/sodipodi-0.dtd" xmlns:inkscape="http://www.inkscape.org/namespaces/inkscape" version="1.1" x="0px" y="0px" viewBox="0 0 100 125"><g transform="translate(0,-952.36218)"><path style="font-size:medium;font-style:normal;font-variant:normal;font-weight:normal;font-stretch:normal;text-indent:0;text-align:start;text-decoration:none;line-height:normal;letter-spacing:normal;word-spacing:normal;text-transform:none;direction:ltr;block-progression:tb;writing-mode:lr-tb;text-anchor:start;baseline-shift:baseline;opacity:1;color:#000000;fill:#000000;fill-opacity:1;stroke:none;stroke-width:3.99999927999999990;marker:none;visibility:visible;display:inline;overflow:visible;enable-background:accumulate;font-family:Sans;-inkscape-font-specification:Sans" d="M 37.9375 6 A 2.0002 2.0002 0 0 0 36.25 7.40625 L 34.03125 14.59375 L 17 14.59375 A 2.0001996 2.0001996 0 0 0 15 16.59375 L 15 28.5 A 2.0001996 2.0001996 0 0 0 17 30.5 L 83 30.5 A 2.0001996 2.0001996 0 0 0 85 28.5 L 85 16.59375 A 2.0001996 2.0001996 0 0 0 83 14.59375 L 65.96875 14.59375 L 63.75 7.40625 A 2.0002 2.0002 0 0 0 61.84375 6 L 38.15625 6 A 2.0002 2.0002 0 0 0 37.9375 6 z M 39.625 10 L 60.375 10 L 61.78125 14.59375 L 38.21875 14.59375 L 39.625 10 z M 19 18.59375 L 81 18.59375 L 81 26.5 L 19 26.5 L 19 18.59375 z M 78.875 32.90625 A 2.0001999 2.0001999 0 0 0 76.96875 34.90625 L 72.15625 90 L 27.84375 90 L 23.03125 34.90625 A 2.0001999 2.0001999 0 0 0 21.03125 33.03125 A 2.0001999 2.0001999 0 0 0 19.0625 35.25 L 24 92.15625 A 2.0001999 2.0001999 0 0 0 26 94 L 74 94 A 2.0001999 2.0001999 0 0 0 76 92.15625 L 80.9375 35.25 A 2.0001999 2.0001999 0 0 0 78.875 32.90625 z M 49.78125 39.5625 A 2.0001996 2.0001996 0 0 0 48 41.5625 L 48 77.28125 A 2.0001996 2.0001996 0 1 0 52 77.28125 L 52 41.5625 A 2.0001996 2.0001996 0 0 0 49.78125 39.5625 z M 33.5 41.53125 A 2.0001996 2.0001996 0 0 0 31.75 43.75 L 35 75.5 A 2.010286 2.010286 0 1 0 39 75.09375 L 35.75 43.34375 A 2.0001996 2.0001996 0 0 0 33.5 41.53125 z M 66.03125 41.53125 A 2.0001996 2.0001996 0 0 0 64.25 43.34375 L 61 75.09375 A 2.010286 2.010286 0 1 0 65 75.5 L 68.25 43.75 A 2.0001996 2.0001996 0 0 0 66.03125 41.53125 z " transform="translate(0,952.36218)"/></g></svg>