<svg xmlns:dc="http://purl.org/dc/elements/1.1/" xmlns:cc="http://creativecommons.org/ns#" xmlns:rdf="http://www.w3.org/1999/02/22-rdf-syntax-ns#" xmlns:svg="http://www.w3.org/2000/svg" xmlns="http://www.w3.org/2000/svg" xmlns:sodipodi="http://sodipodi.sourceforge.net/DTD/sodipodi-0.dtd" xmlns:inkscape="http://www.inkscape.org/namespaces/inkscape" version="1.1" x="0px" y="0px" viewBox="0 0 100 125"><g transform="translate(0,-952.36218)"><path style="text-indent:0;text-transform:none;direction:ltr;block-progression:tb;baseline-shift:baseline;color:#000000;enable-background:accumulate;" d="m 7.0106183,963.36217 c -1.1046,0 -2,0.89543 -2,2 0,1.10457 0.8954,2 2,2 l 12.6561997,0 c 5.1117,12.63923 10.1269,25.30363 15.1876,37.96873 l -4.6876,11.25 c -0.5137,1.2112 0.5282,2.7829 1.8438,2.7813 l 49.999998,0 c 1.0566,0.015 2.0285,-0.9433 2.0285,-2 0,-1.0568 -0.9719,-2.015 -2.0285,-2 l -46.999998,0 3.375,-8.125 48.781198,-3.9063 c 0.834,-0.069 1.5879,-0.717 1.7813,-1.5312 l 6,-26.00003 c 0.2601,-1.16072 -0.748,-2.429 -1.9375,-2.4375 l -66.656198,0 -3.5,-8.75 c -0.2954,-0.73003 -1.0563,-1.24591 -1.8438,-1.25 z m 20.9374997,14 62.562498,0 -5.125,22.125 -47.062498,3.75003 z m 15.0625,46.00003 c -4.9468,0 -9,4.0531 -9,9 0,4.9469 4.0532,9 9,9 4.9469,0 9,-4.0531 9,-9 0,-4.9469 -4.0531,-9 -9,-9 z m 27.999998,0 c -4.946898,0 -8.999998,4.0531 -8.999998,9 0,4.9469 4.0531,9 8.999998,9 4.9468,0 9,-4.0531 9,-9 0,-4.9469 -4.0532,-9 -9,-9 z m -27.999998,4 c 2.7851,0 5,2.2149 5,5 0,2.7851 -2.2149,5 -5,5 -2.785,0 -5,-2.2149 -5,-5 0,-2.7851 2.215,-5 5,-5 z m 27.999998,0 c 2.785,0 5,2.2149 5,5 0,2.7851 -2.215,5 -5,5 -2.7851,0 -4.999998,-2.2149 -4.999998,-5 0,-2.7851 2.214898,-5 4.999998,-5 z" fill="#000000" fill-opacity="1" stroke="none" marker="none" visibility="visible" display="inline" overflow="visible"/></g></svg>