<svg xmlns="http://www.w3.org/2000/svg" xmlns:xlink="http://www.w3.org/1999/xlink" version="1.1" x="0px" y="0px" viewBox="0 0 100 125" style="enable-background:new 0 0 100 100;" xml:space="preserve"><path d="M50.1,91.3L13.4,54.6c-10.5-10.5-10.5-27.6,0-38.1c10-10,26.1-10.5,36.7-1.3C55,11,61.1,8.7,67.7,8.7c0,0,0,0,0,0  c7.2,0,14,2.8,19,7.9l0,0l0,0c5.1,5.1,7.9,11.9,7.9,19c0,7.2-2.8,14-7.9,19L50.1,91.3z M32.4,12.7c-5.9,0-11.7,2.2-16.2,6.7  c-8.9,8.9-8.9,23.5,0,32.4l33.8,33.8l33.8-33.8c4.3-4.3,6.7-10.1,6.7-16.2c0-6.1-2.4-11.9-6.7-16.2l0,0c-4.3-4.3-10.1-6.7-16.2-6.7  c0,0,0,0,0,0c-6.1,0-11.9,2.4-16.2,6.7l-1.4,1.4l-1.4-1.4C44.2,14.9,38.3,12.7,32.4,12.7z"/></svg>