<svg xmlns="http://www.w3.org/2000/svg" viewBox="0 0 566.93 240.94"><defs><style>.cls-1{fill:#3c3c3b}</style></defs><g id="Layer_2" data-name="Layer 2"><g id="Lager_1" data-name="Lager 1"><path class="cls-1" d="M335.58 21.64a73.71 73.71 0 0 0-125.82 52.23 73.92 73.92 0 0 0 43.73 67.5l3.17 1.41.14-62.24-4.51-3-.13 58.17a69.45 69.45 0 0 1-17.62-110.88 69.19 69.19 0 0 1 118.11 49 69.45 69.45 0 0 1-38.75 62.3 33.3 33.3 0 0 0-1.27-42.82 36.87 36.87 0 0 0-16-10.4 32.63 32.63 0 0 0 17.73-28.7c0-16.74-14.89-30.36-33.18-30.36-8.92 0-17.15 2.75-23.17 7.75a26.21 26.21 0 0 0-9.75 20.54c0 7.24 2.44 13.37 7.06 17.93 4.87 4.82 12.07 7.51 19.73 7.41a24 24 0 0 0 11.66-3.4 15.55 15.55 0 0 0 7.35-13.19 17.88 17.88 0 0 0-4.8-13.38c-3.62-3.75-8.95-5.82-15-5.82h-2.28l.36 31.18a22.31 22.31 0 0 1-13.91-6c-3.74-3.69-5.71-8.71-5.71-14.71a21.51 21.51 0 0 1 8.1-17.06c5.22-4.32 12.43-6.71 20.3-6.71 15.8 0 28.66 11.59 28.66 25.84a27.92 27.92 0 0 1-5.39 16.19 26.88 26.88 0 0 1-13.85 10.07h-.11v5.49c15.35 2.79 26.08 14.92 26.08 29.5 0 9.19-4.35 17.7-12 23.7a8.75 8.75 0 0 1-2.08 1.34l-.18.05a68.52 68.52 0 0 1-11.62 2.22h-.16v4.54h.1a73.81 73.81 0 0 0 66.55-73.52 73.47 73.47 0 0 0-21.54-52.17zM286.09 50.7a13.32 13.32 0 0 1 3.53 10.09 11 11 0 0 1-5.26 9.51 18.67 18.67 0 0 1-7.36 2.54l-.31-26.46a15.55 15.55 0 0 1 9.4 4.32zM31.14 216.43c-2.18-.5-2.87-.59-2.48-1.29 5.07-1.79 8-4.47 8-8.73 0-4.67-2.69-7.35-6.26-8.74s-7.74-1.48-12.61-1.48c-5.76 0-11.62.19-16.58.59-.89.3-1 2.18-.1 2.48l3.08.4c2.78.4 2.88 2 2.88 8.43v21c0 6.85-.4 7.25-4.67 7.94l-1.89.3c-.69.5-.59 2.19.2 2.48 3.88-.2 7.25-.29 10.43-.29 3.57 0 6.85.29 8.84.29 4.66 0 9.73-.49 13.5-2.28s6.55-5 6.55-10.32a11 11 0 0 0-8.89-10.78zm-16.58-14.69c0-1.78.2-2.68 4.37-2.68 5.07 0 9.53 2.29 9.53 8.24 0 6.25-4.27 7.74-10.52 7.74-3.18 0-3.38-.1-3.38-1.69zM22 237c-6.16 0-7.45-1.78-7.45-7.74v-9.62c0-1.29.2-1.69 4.67-1.69 6.45 0 12.41 2.38 12.41 10.22C31.64 234.69 27 237 22 237zM72.54 195.09c-14.4 0-24.52 10.13-24.52 23.33 0 12.5 9.13 22.52 24.52 22.52 14 0 24.13-9.72 24.13-23.12 0-12.11-8.14-22.73-24.13-22.73zm.5 43c-11.52 0-16.19-11-16.19-21.24 0-14 7.85-18.86 15-18.86 10.92 0 16 10.72 16 21.34-.02 13.58-7.27 18.74-14.85 18.74zM143.61 236.08c-3.27-2.68-7.64-7.54-12.6-15.88a1.19 1.19 0 0 1 0-1.49c3.87-1.39 8.83-4.26 8.83-10.62 0-10.42-10-11.9-19.26-11.9-5.46 0-11 .19-16.48.59-1 .3-.8 2.38 0 2.48l2.78.4c2.28.3 2.38 2 2.38 8.43v21c0 6.85-.4 7.05-4.67 7.94l-1.48.3a1.44 1.44 0 0 0 .19 2.48c3.48-.2 6.56-.29 9.73-.29s6.36.09 10.53.29c.79-.29.89-2 .2-2.48l-2.29-.3c-4.27-.59-4.66-1.09-4.66-7.94v-7c0-1.39.2-1.59 2.78-1.59 1.59 0 3.17.4 4 1.59 2.08 3.17 4.76 7.54 7.25 10.72 4.37 5.55 7.94 7.44 13.9 7.44a13.87 13.87 0 0 0 4.17-.5 1.21 1.21 0 0 0 0-1.58 9 9 0 0 1-5.3-2.09zm-21.84-18.26c-4.86 0-5 0-5-2.48v-13.5c0-2.58.69-2.78 4.37-2.78 6.95 0 10.42 4.37 10.42 9.33.04 6.85-3.33 9.43-9.79 9.43zM225.34 215.74l-6.15-3.18c-4-2.08-6.66-4.27-6.66-7.84 0-3.37 2.19-6.75 8.05-6.75s8.43 5.06 9.23 8.54c.5.69 2.28.59 2.58-.2.1-4.27-.6-8-1.39-9.73-3.38-.59-5.76-1.49-9.23-1.49-10 0-15.59 5.06-15.59 12.31 0 5.56 4.07 9.43 8.84 11.91l4.46 2.28c5.66 2.88 7 6.16 7 9.33 0 4.57-3.27 7.15-8.34 7.15-6.65 0-11-7-11.81-10.62a1.52 1.52 0 0 0-2.58.2c0 5.26 1.19 8.83 2.08 10.22a20.4 20.4 0 0 0 11.42 3.07c9.83 0 16.18-4.86 16.18-12.6a14.13 14.13 0 0 0-8.09-12.6zM281.84 196.26a35.2 35.2 0 0 1-4.8.22h-27.6a64.64 64.64 0 0 1-7.72-.22c-.5 2.48-1.12 5.78-2.21 10.05a1.71 1.71 0 0 0 2.48.49c2.39-6.84 5-7.44 11-7.44h3.07c2 0 2.09 0 2.09 2.58v27.19c0 6.85-.4 7.45-4.67 7.94l-2.68.3c-.69.5-.59 2.19.2 2.48 4.17-.2 7.74-.29 10.92-.29s6.85.09 10.92.29c.8-.29.9-2 .2-2.48l-2.68-.3c-4.27-.49-4.67-1.09-4.67-7.94v-27.19c0-2.58.3-2.58 2.19-2.58h3.37c6 0 8.54.79 9.24 7.25.39.79 2.08.69 2.48-.1-.33-4.21-.97-7.57-1.13-10.25zM364.17 197.87a34.64 34.64 0 0 0-11.92-1.68c-5.26 0-10.32.19-15.88.59-.9.3-1 2.18-.1 2.48l3 .5c2.28.39 2.38 1.88 2.38 8.33v21c0 6.85-.4 7.05-4.67 7.94l-1.49.3c-.69.5-.59 2.19.2 2.48 3.48-.2 6.55-.29 9.73-.29s6.36.09 10.53.29c.79-.29.89-2 .19-2.48l-2.28-.3c-4.27-.59-4.67-1.09-4.67-7.94v-26.65c0-2.78 0-3.38 4.08-3.38 6.75 0 10.82 3.58 10.82 10.13 0 6.35-3.08 10-9.24 11.31a1.39 1.39 0 0 0 .1 1.79 24.52 24.52 0 0 0 9-1.49c3.67-1.29 8.24-4.47 8.24-11.32a12 12 0 0 0-8.02-11.61zM415.93 228.44c-2.88 7.94-6.55 8.24-12.9 8.24-5.66 0-7.45-.4-8.34-1.39s-1.1-4.17-1.1-7.15V221c0-2 0-2.29 1.89-2.29h4.67c5.26 0 5.76.8 6.55 3.78l.5 1.88a1.66 1.66 0 0 0 2.48-.2c-.2-2.88-.2-4.66-.2-7.14 0-2.29 0-4.07.2-6.95a1.67 1.67 0 0 0-2.48-.2l-.5 1.89c-.79 3-1.29 3.77-6.55 3.77h-4.67c-1.89 0-1.89-.2-1.89-2v-11c0-3.08.1-3.18 3.58-3.18h4.37c2.38 0 6.85 0 8.44 2.38a14 14 0 0 1 1.78 4.77 1.79 1.79 0 0 0 2.59-.2c-.5-4.27-1-8.93-1.1-10.12a87.52 87.52 0 0 1-9.23.29h-14.1c-1.59 0-3.18 0-4.77-.1s-3-.1-4.46-.19a1.66 1.66 0 0 0-.2 2.48l1.39.29c3.77.8 4.17 1.1 4.17 7.94v22.23c0 6.85-.4 7.45-4.67 7.94l-2.68.3c-.69.5-.59 2.19.2 2.48 4.77-.2 7.84-.29 11-.29h8.74c2.68 0 5.36 0 8.14.09s5.66.1 8.74.2c1.09-1.88 2.48-6.84 3-11-.3-.91-1.89-1.1-2.59-.41zM511.07 228.44c-2.88 7.94-6.55 8.24-12.91 8.24-5.66 0-7.44-.4-8.34-1.39s-1.09-4.17-1.09-7.15V221c0-2 0-2.29 1.89-2.29h4.66c5.27 0 5.76.8 6.56 3.78l.49 1.88a1.67 1.67 0 0 0 2.49-.2c-.2-2.88-.2-4.66-.2-7.14 0-2.29 0-4.07.2-6.95a1.69 1.69 0 0 0-2.49-.2l-.49 1.89c-.8 3-1.29 3.77-6.56 3.77h-4.66c-1.89 0-1.89-.2-1.89-2v-11c0-3.08.1-3.18 3.58-3.18h4.36c2.39 0 6.86 0 8.44 2.38a13.78 13.78 0 0 1 1.79 4.77 1.78 1.78 0 0 0 2.58-.2c-.49-4.27-1-8.93-1.09-10.12a87.52 87.52 0 0 1-9.23.29h-14.1c-1.59 0-3.18 0-4.77-.1s-3-.1-4.47-.19a1.67 1.67 0 0 0-.19 2.48l1.37.33c3.77.8 4.17 1.1 4.17 7.94v22.23c0 6.85-.4 7.45-4.67 7.94l-2.68.3c-.7.5-.6 2.19.2 2.48 4.76-.2 7.84-.29 11-.29h8.74c2.68 0 5.36 0 8.14.09s5.66.1 8.73.2c1.1-1.88 2.49-6.84 3-11-.27-.95-1.86-1.14-2.56-.45zM566.63 238.17a8.92 8.92 0 0 1-5.26-2.09c-3.28-2.68-7.65-7.54-12.61-15.88a1.19 1.19 0 0 1 0-1.49c3.87-1.39 8.84-4.26 8.84-10.62 0-10.42-10-11.9-19.27-11.9-5.46 0-11 .19-16.48.59-1 .3-.79 2.38 0 2.48l2.78.4c2.29.3 2.39 2 2.39 8.43v21c0 6.85-.4 7.05-4.67 7.94l-1.49.3a1.45 1.45 0 0 0 .2 2.48c3.47-.2 6.55-.29 9.73-.29s6.35.09 10.52.29c.8-.29.9-2 .2-2.48l-2.28-.3c-4.27-.59-4.67-1.09-4.67-7.94v-7c0-1.39.2-1.59 2.78-1.59 1.59 0 3.18.4 4 1.59 2.09 3.17 4.77 7.54 7.25 10.72 4.37 5.55 7.94 7.44 13.9 7.44a13.77 13.77 0 0 0 4.17-.5 1.19 1.19 0 0 0-.03-1.58zm-27.1-20.35c-4.87 0-5 0-5-2.48v-13.5c0-2.58.7-2.78 4.37-2.78 7 0 10.43 4.37 10.43 9.33.03 6.85-3.33 9.43-9.8 9.43zM198.32 237.36l-1.58-.29c-3.57-.69-4.47-2-5.65-5.26l-8.93-23.68c-1.61-4.26-2.76-7.78-3.45-9.84a7.33 7.33 0 0 0 4.47-6.68 7.76 7.76 0 0 0-15.49 0 7.35 7.35 0 0 0 4.65 6.76c0 .08 0 .16-.06.26a42.43 42.43 0 0 1-2.7 8.91l-9.52 22.79c-2 4.76-3.08 5.84-6.15 6.54l-2.28.49a1.59 1.59 0 0 0 .2 2.48c1.78-.1 4.16-.29 6.94-.29s5.35.09 7.83.29c1-.2 1.09-2 .3-2.48l-2.68-.49c-1.88-.4-2.18-.79-1.09-4l2.28-6.34c.79-2.28 1.09-2.37 3.37-2.37h9.42c2.28 0 2.58.09 3.37 2.37L184 233c1.19 3.08 1.29 3.67-1.29 4.07l-2 .29a1.44 1.44 0 0 0 .2 2.48c2.47-.2 5.35-.29 8.92-.29 3.37 0 5.65.09 8.23.29a1.45 1.45 0 0 0 .26-2.48zm-27-45.75c0-2.71 1.78-4.8 4.1-4.8s4.11 2.09 4.11 4.8-1.7 4.79-4.11 4.79-4.09-2.01-4.09-4.79zm5.29 29.39h-6.84c-2.18 0-2.38-.21-1.29-2.88l3.57-8.82a22.09 22.09 0 0 1 1.59-3.37h.2a19.83 19.83 0 0 1 1.48 3.57l3.08 8.42c1.09 2.89.79 3.08-1.79 3.08zM465.78 196.26a35.2 35.2 0 0 1-4.8.22h-27.6a64.64 64.64 0 0 1-7.72-.22c-.5 2.48-1.11 5.78-2.21 10.05a1.72 1.72 0 0 0 2.49.49c2.38-6.84 5-7.44 11-7.44H440c2 0 2.09 0 2.09 2.58v27.19c0 6.85-.4 7.45-4.67 7.94l-2.68.3c-.69.5-.59 2.19.2 2.48 4.17-.2 7.74-.29 10.92-.29s6.85.09 10.92.29c.8-.29.9-2 .2-2.48l-2.68-.3c-4.27-.49-4.67-1.09-4.67-7.94v-27.19c0-2.58.3-2.58 2.19-2.58h3.37c6 0 8.54.79 9.24 7.25a1.6 1.6 0 0 0 2.48-.1c-.33-4.21-.91-7.57-1.13-10.25zM329.79 237.37l-1.59-.3c-3.57-.69-4.47-2-5.66-5.26l-8.93-23.72c-2.29-6.05-3.88-11.31-4.27-12.3-.2-.6-3.5-.62-3.71 0-.5 1.19-2.95 7.64-4.63 11.71l-9.54 22.83c-2 4.76-3.07 5.85-6.15 6.55l-2.28.49a1.59 1.59 0 0 0 .19 2.48c1.79-.1 4.17-.29 6.95-.29s5.37.1 7.85.29c1-.19 1.09-2 .3-2.48l-2.69-.49c-1.88-.4-2.18-.8-1.09-4l2.29-6.36c.79-2.28 1.09-2.38 3.37-2.38h9.43c2.29 0 2.59.1 3.38 2.38l2.38 6.46c1.19 3.07 1.29 3.67-1.29 4.06l-2 .3a1.44 1.44 0 0 0 .19 2.48c2.49-.19 5.37-.29 8.94-.29 3.38 0 5.66.1 8.24.29 1.01-.16 1.21-1.95.32-2.45zm-22-16.37h-6.85c-2.18 0-2.38-.2-1.29-2.88l3.57-8.83a24.24 24.24 0 0 1 1.59-3.38h.2a18.73 18.73 0 0 1 1.49 3.57l3.08 8.44c1.06 2.88.76 3.08-1.82 3.08z"/></g></g></svg>
