<svg xmlns="http://www.w3.org/2000/svg" xmlns:xlink="http://www.w3.org/1999/xlink" version="1.1" viewBox="0 0 24 30" x="0px" y="0px"><path d="M22 21.293l-7.714-7.714c1.066-1.228 1.714-2.826 1.714-4.579 0-3.866-3.135-7-7-7s-7 3.134-7 7 3.134 7 7 7c1.753 0 3.352-0.648 4.58-1.714l7.714 7.714 0.706-0.707zM3 9c0-3.216 2.806-6 6-6 3.205 0 6 2.604 6 6 0 3.222-2.738 6-6 6-3.156 0-6-2.604-6-6z"/><text x="0" y="39" fill="#000000" font-size="5px" font-weight="bold" font-family="'Helvetica Neue', Helvetica, Arial-Unicode, Arial, Sans-serif">Created by Paco Trujillo</text><text x="0" y="44" fill="#000000" font-size="5px" font-weight="bold" font-family="'Helvetica Neue', Helvetica, Arial-Unicode, Arial, Sans-serif">from the Noun Project</text></svg>